<svg class="diagram-root" style="background: #f5f6f6" xmlns="http://www.w3.org/2000/svg" xmlns:xlink="http://www.w3.org/1999/xlink"><style>.diagram-root { font-family: "Helvetica Neue", sans-serif; font-size: 12px; } .t { overflow: visible; } .t-bg { y: 40; fill: #fff;   } .th { fill: #005aa0;   } .tht { fill: #fff; font-size: 14px;  } .tf { fill: #323c46; overflow: visible; } .tf.pk { fill: #005aa0; font-weight: bold; } .tf.fk { font-weight: bold; } .ty { fill: #adb1b5; font-weight: normal; text-anchor: end; } .r { fill: transparent; stroke: #c3c3c3; stroke-width: 1; } .l { stroke: 1; } .i { fill: #c2c7ce; stroke: #c2c7ce; } .i.ix { fill: #afb3b6; stroke: #000; } .fa { fill: transparent; overflow: visible; } .fa .bg.hover { fill: #f7f7f7; } .c { cy: 12; r: 4; stroke: #d2d2dc; fill: #d2d2dc; } .hr { fill: transparent; stroke: #323c46; stroke-opacity: 0.035; stroke-width: 13; } .dc { stroke: #fa5a3c; fill: #fa5a3c; } .x { stroke: white; stroke-width: 1; } .hl .th { fill: #1b9bff; } .hl .tht {  } .fhl .bg { fill: #e7f4ff; } .fhls .bg {  } .r.hl { stroke: #1b9bff; } .dim { opacity: 0.25; }</style><g class="drawing-wrapper" transform="translate(3, 18) scale(1,1)"><g class="rs"><path d="M 551.18 149 m -1, 0 a 1,1 0 1,0 2,0 a 1,1 0 1,0 -2,0 M 551.18 149 m -0.5, 0 a 0.5,0.5 0 1,0 1,0 a 0.5,0.5 0 1,0 -1,0  M551.18 149 L551.18 149 563.18 149 M 551.18 155 m -1, 0 a 1,1 0 1,0 2,0 a 1,1 0 1,0 -2,0 M 551.18 155 m -0.5, 0 a 0.5,0.5 0 1,0 1,0 a 0.5,0.5 0 1,0 -1,0  M551.18 155 L551.18 155 558.18 149 551.18 143 M 551.18 143 m -1, 0 a 1,1 0 1,0 2,0 a 1,1 0 1,0 -2,0 M 551.18 143 m -0.5, 0 a 0.5,0.5 0 1,0 1,0 a 0.5,0.5 0 1,0 -1,0  M563.18 149 C 926.2040000000002 149, 808.82 304, 758.82 304 M 746.82 304 m -1, 0 a 1,1 0 1,0 2,0 a 1,1 0 1,0 -2,0 M 746.82 304 m -0.5, 0 a 0.5,0.5 0 1,0 1,0 a 0.5,0.5 0 1,0 -1,0  M746.82 304 L746.82 304 758.82 304 M752.82 310 L752.82 310 752.82 298" id="h184283748" class="r"></path><path d="M 340.67 424 m -1, 0 a 1,1 0 1,0 2,0 a 1,1 0 1,0 -2,0 M 340.67 424 m -0.5, 0 a 0.5,0.5 0 1,0 1,0 a 0.5,0.5 0 1,0 -1,0  M340.67 424 L340.67 424 328.67 424 M 340.67 430 m -1, 0 a 1,1 0 1,0 2,0 a 1,1 0 1,0 -2,0 M 340.67 430 m -0.5, 0 a 0.5,0.5 0 1,0 1,0 a 0.5,0.5 0 1,0 -1,0  M340.67 430 L340.67 430 333.67 424 340.67 418 M 340.67 418 m -1, 0 a 1,1 0 1,0 2,0 a 1,1 0 1,0 -2,0 M 340.67 418 m -0.5, 0 a 0.5,0.5 0 1,0 1,0 a 0.5,0.5 0 1,0 -1,0  M328.67 424 Q 307.13 424, 285.58 255.5 T 242.49 87 M 230.49 87 m -1, 0 a 1,1 0 1,0 2,0 a 1,1 0 1,0 -2,0 M 230.49 87 m -0.5, 0 a 0.5,0.5 0 1,0 1,0 a 0.5,0.5 0 1,0 -1,0  M230.49 87 L230.49 87 242.49 87 M236.49 93 L236.49 93 236.49 81" id="h2405255031" class="r"></path><path d="M 340.67 449 m -1, 0 a 1,1 0 1,0 2,0 a 1,1 0 1,0 -2,0 M 340.67 449 m -0.5, 0 a 0.5,0.5 0 1,0 1,0 a 0.5,0.5 0 1,0 -1,0  M340.67 449 L340.67 449 328.67 449 M 340.67 455 m -1, 0 a 1,1 0 1,0 2,0 a 1,1 0 1,0 -2,0 M 340.67 455 m -0.5, 0 a 0.5,0.5 0 1,0 1,0 a 0.5,0.5 0 1,0 -1,0  M340.67 455 L340.67 455 333.67 449 340.67 443 M 340.67 443 m -1, 0 a 1,1 0 1,0 2,0 a 1,1 0 1,0 -2,0 M 340.67 443 m -0.5, 0 a 0.5,0.5 0 1,0 1,0 a 0.5,0.5 0 1,0 -1,0  M328.67 449 Q 309.22 449, 289.76 337 T 250.84 225 M 238.84 225 m -1, 0 a 1,1 0 1,0 2,0 a 1,1 0 1,0 -2,0 M 238.84 225 m -0.5, 0 a 0.5,0.5 0 1,0 1,0 a 0.5,0.5 0 1,0 -1,0  M238.84 225 L238.84 225 250.84 225 M244.84 231 L244.84 231 244.84 219" id="h734363672" class="r"></path></g><g class="hrs"></g><g class="ts"><svg width="200.49" height="100" x="30" y="30" id="h1903237708" class="t"><rect height="40" width="200.49" class="th"></rect><text x="13" y="25" class="tht">Category</text><rect height="60" width="200.49" class="t-bg"></rect><text x="13" y="61" class="tf pk">category_id<tspan x="187.49" class="ty">VARCHAR(8)</tspan></text><path d="M7,14A2,2 0 0,1 5,12A2,2 0 0,1 7,10A2,2 0 0,1 9,12A2,2 0 0,1 7,14M12.65,10C11.83,7.67 9.61,6 7, 6A6, 6 0 0, 0 1, 12A6, 6 0 0, 0 7, 18C9.61, 18 11.83, 16.33 12.65, 14H17V18H21V14H23V10H12.65Z" class="i pk" transform="translate(95.03882812500001, 48) scale(0.65)"></path><text x="13" y="86" class="tf">category<tspan x="187.49" class="ty">VARCHAR(64)</tspan></text></svg><svg width="219.84" height="100" x="19" y="168" id="h2584823334" class="t"><rect height="40" width="219.84" class="th"></rect><text x="13" y="25" class="tht">Subcategory</text><rect height="60" width="219.84" class="t-bg"></rect><text x="13" y="61" class="tf pk">subcategory_id<tspan x="206.84" class="ty">VARCHAR(8)</tspan></text><path d="M7,14A2,2 0 0,1 5,12A2,2 0 0,1 7,10A2,2 0 0,1 9,12A2,2 0 0,1 7,14M12.65,10C11.83,7.67 9.61,6 7, 6A6, 6 0 0, 0 1, 12A6, 6 0 0, 0 7, 18C9.61, 18 11.83, 16.33 12.65, 14H17V18H21V14H23V10H12.65Z" class="i pk" transform="translate(114.388828125, 48) scale(0.65)"></path><text x="13" y="86" class="tf pk">subcategory<tspan x="206.84" class="ty">VARCHAR(64)</tspan></text><path d="M7,14A2,2 0 0,1 5,12A2,2 0 0,1 7,10A2,2 0 0,1 9,12A2,2 0 0,1 7,14M12.65,10C11.83,7.67 9.61,6 7, 6A6, 6 0 0, 0 1, 12A6, 6 0 0, 0 7, 18C9.61, 18 11.83, 16.33 12.65, 14H17V18H21V14H23V10H12.65Z" class="i pk" transform="translate(107.715, 73) scale(0.65)"></path></svg><svg width="181.15" height="150" x="565.67" y="247" id="h1934035236" class="t"><rect height="40" width="181.15" class="th"></rect><text x="13" y="25" class="tht">Contacts</text><rect height="110" width="181.15" class="t-bg"></rect><text x="13" y="61" class="tf pk">contact_id<tspan x="168.15" class="ty">INT</tspan></text><path d="M7,14A2,2 0 0,1 5,12A2,2 0 0,1 7,10A2,2 0 0,1 9,12A2,2 0 0,1 7,14M12.65,10C11.83,7.67 9.61,6 7, 6A6, 6 0 0, 0 1, 12A6, 6 0 0, 0 7, 18C9.61, 18 11.83, 16.33 12.65, 14H17V18H21V14H23V10H12.65Z" class="i pk" transform="translate(128.819921875, 48) scale(0.65)"></path><text x="13" y="86" class="tf">first_name<tspan x="168.15" class="ty">VARCHAR(64)</tspan></text><text x="13" y="111" class="tf">last_name<tspan x="168.15" class="ty">VARCHAR(64)</tspan></text><text x="13" y="136" class="tf">email<tspan x="168.15" class="ty">VARCHAR(64)</tspan></text></svg><svg width="210.51" height="400" x="340.67" y="67" id="h3542347218" class="t"><rect height="40" width="210.51" class="th"></rect><text x="13" y="25" class="tht">Campaign</text><rect height="360" width="210.51" class="t-bg"></rect><text x="13" y="61" class="tf pk">cf_id<tspan x="197.51" class="ty">INT</tspan></text><path d="M7,14A2,2 0 0,1 5,12A2,2 0 0,1 7,10A2,2 0 0,1 9,12A2,2 0 0,1 7,14M12.65,10C11.83,7.67 9.61,6 7, 6A6, 6 0 0, 0 1, 12A6, 6 0 0, 0 7, 18C9.61, 18 11.83, 16.33 12.65, 14H17V18H21V14H23V10H12.65Z" class="i pk" transform="translate(158.179921875, 48) scale(0.65)"></path><text x="13" y="86" class="tf fk">contact_id<tspan x="197.51" class="ty">INT</tspan></text><text x="13" y="111" class="tf">company_name<tspan x="197.51" class="ty">VARCHAR(64)</tspan></text><text x="13" y="136" class="tf">description<tspan x="197.51" class="ty">VARCHAR(64)</tspan></text><text x="13" y="161" class="tf">goal<tspan x="197.51" class="ty">NUMERIC(10,2)</tspan></text><text x="13" y="186" class="tf">pledged<tspan x="197.51" class="ty">NUMERIC(10,2)</tspan></text><text x="13" y="211" class="tf">outcome<tspan x="197.51" class="ty">VARCHAR(16)</tspan></text><text x="13" y="236" class="tf">backers_count<tspan x="197.51" class="ty">INT</tspan></text><text x="13" y="261" class="tf">country<tspan x="197.51" class="ty">VARCHAR(16)</tspan></text><text x="13" y="286" class="tf">currency<tspan x="197.51" class="ty">VARCHAR(8)</tspan></text><text x="13" y="311" class="tf">launched_date<tspan x="197.51" class="ty">DATE</tspan></text><text x="13" y="336" class="tf">end_date<tspan x="197.51" class="ty">DATE</tspan></text><text x="13" y="361" class="tf fk">category_id<tspan x="197.51" class="ty">VARCHAR(8)</tspan></text><text x="13" y="386" class="tf fk">subcategory_id<tspan x="197.51" class="ty">VARCHAR(8)</tspan></text></svg></g></g><text class="qdbd-link" x="10" y="20">www.quickdatabasediagrams.com</text></svg>